<svg xmlns="http://www.w3.org/2000/svg" width="205" height="57" viewBox="0 0 205 57">
  <g id="Logo" transform="translate(-56 -29)">
    <text id="FLE" transform="translate(56 70)" fill="#fff" font-size="37" font-family="CarterOne, Carter One"><tspan x="0" y="0">FLE</tspan></text>
    <text id="KING" transform="translate(173 69)" fill="#fff" font-size="36" font-family="CarterOne, Carter One"><tspan x="0" y="0">KING</tspan></text>
    <g id="AJ0o0E01" transform="translate(123.244 39.548)">
      <path id="Path_1" data-name="Path 1" d="M33.274-244.228a69.249,69.249,0,0,0-7.677.878,25.927,25.927,0,0,1-10.605-.119c-5.58-1.053-9.323-.332-11.966,2.3a8.307,8.307,0,0,0,1.005,12.758l.752.5-1.163-.047c-1.029-.048-1.187-.016-1.385.269-.546.815-.269.886,5.58,1.409l5.358.483.293,1.789c.348,2.105.443,1.923-.926,1.757a92.472,92.472,0,0,0-10.621-.768c-.807.673-.135,1.179,1.757,1.322,1.7.127,8.025.689,9.26.815a4.523,4.523,0,0,1,.95.174c.04.048.087,2.074.095,4.511l.008,4.44-.38.142a3.022,3.022,0,0,1-3.459-1.48c-.285-.538-.3-1.045-.142-3.87l.127-2.248-.435-.2a.7.7,0,0,0-.942.855,15.824,15.824,0,0,1-.111,2.43c-.237,2.54-.063,3.364.966,4.543a3.537,3.537,0,0,1,.736,1.243c.4,2.066,1.717,2.984,4.3,2.984,1.456,0,1.575.024,1.749.356.744,1.385,5.73,2.081,6.363.894.19-.348-.055-.934-.38-.934-.9,0-1.678-2.058-1.037-2.738a5.52,5.52,0,0,0,1.2-2.865,78.844,78.844,0,0,0,.237-11.167c-.206-1.812-.348-1.686,1.338-1.2a31.345,31.345,0,0,0,10.4,1.037l.752-.071.063,1.939.055,1.947-.578-.087c-.317-.055-2.628-.277-5.136-.5-4.883-.435-5.018-.427-5.018.34,0,.546.309.633,3.126.855l2.572.2.166.657a22.814,22.814,0,0,0,2.216,5.959,14.46,14.46,0,0,0,1.638,2.659,3.782,3.782,0,0,1,.791,1.179,3.475,3.475,0,0,0,3.569,2.232c.863-.1.981-.071,1.432.309.7.586,1.417.736,3.5.736,2.509,0,3.094-.6,1.567-1.614a2.647,2.647,0,0,1-.855-1.116l-.309-.744.427-.791a4.178,4.178,0,0,0,.34-3.324,30.781,30.781,0,0,1-.483-4.875,11.881,11.881,0,0,1,1.361.127c1.274.166,1.345.158,1.614-.174.578-.72.142-1.029-1.686-1.187l-1.243-.1.1-1.116c.166-1.828.388-2.5.784-2.422,1.884.372,2.77.174,2.58-.594-.119-.467-.34-.562-1.5-.609-1.084-.047-1.061.048-.507-2.2C48.667-237.881,43.681-244.964,33.274-244.228Zm3.72,1.337a9.985,9.985,0,0,1,7.788,6.537c.332.973.364,1.33.364,4.226,0,3.435-.04,3.656-1.607,9.26a27.719,27.719,0,0,0-.15,9.339c.451,2.066.332,2.754-.6,3.633a2.707,2.707,0,0,1-2.738.182c-2.667-1.678-4.242-12.908-2.762-19.7.546-2.517.53-2.794-.23-2.794-.412,0-.7.412-.7,1.021,0,.562-.206.506-.673-.2-.784-1.187-3.2-2.422-3.886-1.986-.625.388-.356,1.068.491,1.25,2.24.459,3.546,2.548,3.237,5.136l-.19,1.575-.7.1c-2.461.372-7.827-.237-11.1-1.25l-1.187-.372L22.3-227.7a1.98,1.98,0,0,1,.546-1.622c.609-.894.617-1.148.016-1.527-.332-.206-.918.309-1.5,1.314-.514.871-.538,1.67-.127,4.21.657,4.084.324,12.584-.554,14.143a2.9,2.9,0,0,1-4.369.768c-.958-.839-1.045-1.235-.918-4.131a48.474,48.474,0,0,0-1.029-11.768l-.293-1.155.419-.214a6.305,6.305,0,0,0,2.8-6.672c-1.013-3.466-3.49-5.121-5.944-3.965a2.933,2.933,0,0,1-3.007-.063,2.639,2.639,0,0,0-2.77-.1,6.513,6.513,0,0,0-3.205,4.859c-.1,1.171-.285,1.053-.507-.348-.586-3.656,1.63-6.98,5.532-8.31,1.361-.459,4.472-.38,7.6.2a33.271,33.271,0,0,0,10.684.111,67.277,67.277,0,0,1,10.13-1.068C36.068-243.009,36.606-242.946,36.994-242.891ZM8.138-237.026a4.187,4.187,0,0,0,3.625.008c1.108-.514,1.369-.514,2.224-.008.871.507.863.57-.119,1.029-2.841,1.33-1.9,4.772,1.322,4.812.657.008.665.024.388.5A6.892,6.892,0,0,1,11-227.7c-.578.127-.689-1.353-.119-1.654a1.854,1.854,0,0,0-.293-3.158A1.769,1.769,0,0,0,8.7-229.579a1.29,1.29,0,0,1,.594,1.179v.641L8.7-227.87a6.162,6.162,0,0,1-4.337-2.493c-.578-.8-.578-.815.222-.823,3.213-.032,4.21-3.324,1.44-4.764-1.045-.538-1.061-.633-.214-1.14A2.107,2.107,0,0,1,8.138-237.026Zm-2.572,2.3c.942.554,1.116,1.345.38,1.741-.269.142-.364.111-.562-.166-.364-.522-.9-.372-.966.269-.055.578-.546.507-.744-.111C3.255-234.328,4.427-235.4,5.566-234.723Zm10.114-.047a2.41,2.41,0,0,1,.261,2.01c-.214.261-.554.332-.4.079s-.222-.791-.562-.791a.7.7,0,0,0-.507.316c-.332.538-1.068.135-1.068-.578C13.409-234.565,15.143-235.356,15.681-234.771Zm-5.374,3.72c.127.2.1.324-.095.522-.34.348-.76.174-.76-.317C9.452-231.431,9.99-231.566,10.307-231.051Zm23.861,12.069,1.361.1.111.973a22.812,22.812,0,0,0,1.353,5.405c.356.958.665,1.844.681,1.979.047.388-1.29.293-1.986-.135-.958-.594-3.269-5.461-3.838-8.08l-.111-.53.53.087C32.562-219.124,33.416-219.037,34.168-218.982Zm-19.05,9.268c.942,1.037.9,1.092-.72.989-1.591-.095-1.907-.206-2.335-.855-.443-.657-.419-.689.554-.649a4.2,4.2,0,0,0,1.266-.111C14.391-210.545,14.335-210.569,15.119-209.714Zm23.838,1.29c.1.427.087.435-.673.435-1.235,0-2.224-.942-1.013-.958a3.272,3.272,0,0,0,.91-.142C38.561-209.247,38.814-209.034,38.956-208.424Zm-18.962.554c.166.412.324.807.356.871s-.332.119-.791.119a2.451,2.451,0,0,1-2.24-1.092l-.332-.546.7.095a4.116,4.116,0,0,0,1.258-.032c.309-.071.6-.142.649-.15A1.879,1.879,0,0,1,19.994-207.87Zm23.141,0c.087.237.206.562.269.712.245.6-1.947.309-2.6-.348-.483-.483-.4-.657.269-.562a2.787,2.787,0,0,0,1.068-.063C42.874-208.361,42.969-208.337,43.135-207.87Z" transform="translate(-0.511 244.281)" fill="#fff"/>
    </g>
  </g>
</svg>
